<svg xmlns="http://www.w3.org/2000/svg" version="1.0" width="1010.000000pt" height="1290.000000pt" viewBox="0 0 1010.000000 1290.000000" preserveAspectRatio="xMidYMid meet">

<g transform="translate(0.000000,1290.000000) scale(0.100000,-0.100000)" fill="#1967d2" stroke="none">
<path d="M5385 10664 c-313 -57 -577 -319 -631 -625 -48 -276 40 -536 248 -735 70 -68 162 -119 278 -156 68 -21 93 -23 275 -23 186 1 204 2 255 24 213 89 379 276 468 526 33 94 42 277 18 379 -19 79 -78 212 -127 282 -78 114 -254 256 -365 295 -70 25 -214 49 -283 48 -31 0 -92 -7 -136 -15z" fill="#1967d2"/>
<path d="M4450 8916 c-30 -7 -109 -40 -175 -73 -66 -33 -217 -107 -335 -163 -420 -201 -915 -451 -943 -478 -16 -15 -35 -39 -43 -54 -27 -52 -422 -1173 -443 -1258 -11 -47 -25 -116 -30 -155 l-10 -70 36 -37 c43 -44 183 -109 299 -138 48 -13 110 -20 165 -20 l87 0 31 50 c34 55 43 87 97 325 38 171 118 424 159 504 16 32 62 84 133 151 205 191 310 256 532 328 173 56 263 82 268 77 3 -3 -18 -136 -46 -297 -126 -718 -178 -1080 -194 -1343 -6 -111 -9 -208 -6 -216 3 -8 65 -36 139 -63 74 -26 218 -83 320 -127 103 -43 265 -105 360 -138 96 -32 251 -87 344 -121 147 -54 335 -120 1005 -356 74 -26 138 -50 141 -53 4 -3 12 -159 18 -346 6 -187 14 -384 17 -437 l6 -97 69 -15 c53 -13 132 -16 369 -16 l301 0 43 43 c71 72 70 54 62 862 l-7 710 -22 23 c-41 44 -101 70 -352 155 -137 46 -297 102 -355 125 -146 56 -343 115 -557 164 -145 34 -183 46 -183 59 0 39 56 286 125 549 40 157 90 362 110 455 20 94 40 178 44 188 6 17 13 14 66 -26 60 -45 302 -288 426 -428 76 -86 136 -122 229 -139 93 -17 1077 -4 1174 16 82 16 123 39 153 84 21 29 23 45 23 150 0 64 -3 165 -6 223 l-7 106 -61 28 -61 28 -388 1 -388 0 -32 62 c-26 50 -54 80 -147 160 -63 54 -155 145 -204 203 -50 57 -198 213 -330 345 -266 266 -280 276 -440 314 -90 22 -335 61 -691 110 -566 79 -771 94 -895 66z" fill="#1967d2"/>
<path d="M2135 6530 c-15 -28 -65 -235 -65 -267 0 -7 21 -23 48 -34 116 -51 576 -223 677 -254 116 -35 315 -70 326 -57 16 19 67 287 56 298 -3 3 -173 69 -377 145 -351 132 -494 178 -602 193 -45 7 -48 6 -63 -24z" fill="#1967d2"/>
<path d="M1097 6252 c-75 -158 -98 -218 -249 -637 -169 -467 -185 -518 -204 -625 -22 -133 -19 -147 44 -191 29 -20 99 -54 155 -74 56 -21 568 -211 1137 -422 569 -212 1067 -392 1105 -400 73 -16 219 -12 266 6 21 8 52 83 227 557 235 636 257 702 280 835 l16 98 -24 26 c-14 15 -38 35 -55 45 -16 10 -221 86 -455 170 -234 83 -753 275 -1155 425 -401 150 -762 280 -802 289 -40 9 -108 16 -151 16 l-79 0 -56 -118z" fill="#1967d2"/>
<path d="M4405 5517 c-13 -37 -79 -283 -100 -372 -14 -57 -50 -245 -80 -417 -61 -340 -64 -355 -102 -473 -54 -168 -125 -286 -298 -495 -288 -349 -325 -403 -325 -475 0 -57 56 -126 225 -274 142 -125 201 -168 270 -192 75 -26 115 -15 176 48 26 27 145 174 265 328 120 154 271 346 336 427 263 331 324 460 422 903 25 110 54 252 65 315 21 115 53 371 48 376 -6 7 -572 219 -662 249 -139 46 -235 67 -240 52z" fill="#1967d2"/>
<path d="M6393 3840 c-42 -17 -48 -44 -48 -228 0 -160 1 -175 19 -188 17 -12 214 -14 1327 -14 l1308 0 15 22 c13 18 16 55 16 199 0 166 -1 177 -21 195 -20 18 -58 19 -1308 21 -751 1 -1295 -2 -1308 -7z" fill="#1967d2"/>
<path d="M5034 3064 c-12 -3 -30 -14 -40 -26 -17 -18 -19 -41 -22 -195 -3 -154 -1 -177 14 -194 17 -18 52 -19 1315 -19 l1298 0 13 23 c9 16 13 72 12 201 -1 161 -3 181 -20 193 -15 11 -236 13 -1224 13 -664 0 -1234 2 -1266 4 -32 3 -69 2 -80 0z" fill="#1967d2"/>
<path d="M3687 2250 c-109 -14 -127 -51 -127 -264 0 -137 2 -156 19 -177 l19 -24 1289 0 c1191 0 1291 1 1326 17 l37 17 0 184 c0 178 -1 184 -22 204 -56 50 10 48 -1278 49 -663 1 -1231 -2 -1263 -6z" fill="#1967d2"/>
</g>
</svg>