<svg xmlns="http://www.w3.org/2000/svg" version="1.0" width="1172.000000pt" height="416.000000pt" viewBox="0 0 1172.000000 416.000000" preserveAspectRatio="xMidYMid meet">

<g transform="translate(0.000000,416.000000) scale(0.100000,-0.100000)" fill="#1967d2" stroke="none">
<path d="M1660 3383 c-103 -54 -156 -165 -130 -273 45 -186 276 -252 408 -117 52 53 72 101 72 174 0 68 -23 125 -70 171 -47 47 -86 64 -160 69 -57 4 -72 1 -120 -24z" fill="#1967d2"/>
<path d="M1215 2744 c-132 -63 -245 -120 -252 -127 -15 -15 -163 -446 -163 -475 0 -16 15 -26 76 -48 56 -20 81 -25 93 -17 9 5 41 81 71 168 l56 158 138 69 c77 37 141 66 143 64 5 -4 -34 -267 -68 -464 -11 -68 -15 -120 -10 -129 4 -9 171 -74 377 -147 l369 -131 3 -135 c2 -113 5 -137 19 -147 11 -9 52 -13 114 -13 135 0 129 -13 129 267 0 122 -4 232 -9 246 -8 20 -36 32 -203 86 -275 88 -263 83 -261 112 5 49 90 353 100 356 6 2 54 -37 106 -87 l97 -90 208 0 c148 0 211 3 220 12 7 7 12 42 12 85 0 70 -1 74 -26 83 -14 6 -76 10 -137 10 l-112 0 -165 165 -165 165 -250 40 c-137 22 -255 40 -260 40 -6 0 -118 -52 -250 -116z" fill="#1967d2"/>
<path d="M7640 1920 l0 -820 100 0 100 0 0 305 c0 181 4 324 11 355 14 68 64 138 122 174 41 25 61 30 130 34 75 4 87 2 137 -25 46 -24 60 -38 85 -88 l30 -59 3 -348 3 -348 95 0 95 0 -3 393 c-3 383 -4 393 -26 449 -30 73 -96 142 -170 176 -75 35 -210 42 -298 17 -78 -22 -150 -69 -182 -118 l-27 -41 -3 382 -2 382 -100 0 -100 0 0 -820z" fill="#1967d2"/>
<path d="M10060 1920 l0 -820 95 0 95 0 0 71 0 71 52 -47 c57 -52 96 -74 177 -100 76 -25 252 -17 334 15 124 47 236 163 287 297 28 72 39 257 20 346 -26 128 -126 269 -236 333 -69 41 -165 64 -264 64 -136 0 -235 -36 -321 -117 l-49 -46 0 377 0 376 -95 0 -95 0 0 -820z m675 21 c101 -45 166 -135 186 -259 28 -169 -49 -332 -184 -393 -43 -20 -68 -24 -152 -24 -116 0 -164 18 -233 87 -62 61 -93 135 -99 232 -11 181 74 324 221 372 62 21 199 13 261 -15z" fill="#1967d2"/>
<path d="M3590 1870 l0 -770 105 0 105 0 2 353 3 352 395 0 395 0 3 -352 2 -353 100 0 100 0 0 770 0 770 -100 0 -100 0 0 -320 0 -320 -400 0 -400 0 0 320 0 320 -105 0 -105 0 0 -770z" fill="#1967d2"/>
<path d="M5192 2620 c-124 -76 -74 -260 71 -260 107 0 173 111 123 208 -34 66 -129 92 -194 52z" fill="#1967d2"/>
<path d="M6068 2136 c-66 -24 -127 -66 -163 -113 l-35 -46 0 77 0 76 -100 0 -100 0 0 -515 0 -515 100 0 100 0 0 309 c0 345 5 378 66 450 52 60 120 85 232 84 l93 0 -3 101 -3 101 -75 2 c-43 2 -91 -3 -112 -11z" fill="#1967d2"/>
<path d="M6762 2135 c-215 -60 -357 -228 -381 -449 -30 -274 112 -513 348 -586 79 -25 249 -27 336 -5 104 27 211 92 272 165 l22 27 -69 51 c-39 29 -73 52 -76 52 -4 0 -31 -23 -60 -50 -53 -50 -110 -81 -172 -93 -48 -10 -164 9 -220 35 -72 34 -147 114 -166 178 -9 30 -16 60 -16 67 0 10 81 13 413 15 l412 3 -3 89 c-9 233 -105 399 -277 477 -64 29 -80 32 -190 35 -85 3 -135 0 -173 -11z m247 -151 c98 -29 169 -119 185 -236 l7 -48 -312 0 -311 0 7 37 c7 41 36 102 69 146 26 35 111 92 156 105 53 15 141 14 199 -4z" fill="#1967d2"/>
<path d="M5170 1615 l0 -515 95 0 95 0 0 515 0 515 -95 0 -95 0 0 -515z" fill="#1967d2"/>
<path d="M8852 1737 l3 -392 32 -66 c38 -77 90 -131 158 -167 40 -21 68 -27 144 -30 53 -3 117 1 147 7 68 16 164 78 195 127 l24 39 3 -77 3 -78 99 0 100 0 0 515 0 515 -100 0 -100 0 0 -313 c0 -345 -4 -379 -59 -455 -46 -62 -108 -94 -196 -100 -43 -3 -87 0 -109 8 -52 17 -105 66 -130 120 -20 42 -21 65 -24 393 l-3 347 -95 0 -95 0 3 -393z" fill="#1967d2"/>
<path d="M684 2065 c-20 -49 -18 -62 14 -73 200 -73 286 -101 292 -95 14 15 30 77 23 84 -7 6 -125 51 -276 105 l-38 14 -15 -35z" fill="#1967d2"/>
<path d="M372 2027 c-21 -24 -172 -455 -166 -470 3 -9 18 -20 32 -25 15 -5 202 -74 417 -152 274 -100 394 -139 404 -133 20 12 182 453 175 475 -2 9 -17 21 -32 26 -15 6 -199 73 -410 151 -211 78 -389 141 -397 141 -7 0 -17 -6 -23 -13z" fill="#1967d2"/>
<path d="M1365 1541 l-48 -229 -93 -118 c-51 -65 -95 -127 -98 -137 -5 -21 20 -48 112 -119 41 -32 57 -39 72 -32 10 5 84 92 163 193 l145 184 41 190 c23 104 40 191 39 193 -3 2 -280 104 -284 104 0 0 -23 -103 -49 -229z" fill="#1967d2"/>
<path d="M2044 1216 c-3 -7 -4 -38 -2 -67 l3 -54 409 -3 c301 -2 412 1 423 9 10 9 13 29 11 68 l-3 56 -418 3 c-348 2 -418 0 -423 -12z" fill="#1967d2"/>
<path d="M1601 966 c-7 -8 -11 -37 -9 -68 l3 -53 420 0 420 0 0 65 0 65 -411 3 c-347 2 -413 0 -423 -12z" fill="#1967d2"/>
<path d="M1150 646 c0 -49 4 -65 16 -70 20 -8 788 -8 808 0 12 5 16 21 16 70 l0 64 -420 0 -420 0 0 -64z" fill="#1967d2"/>
</g>
</svg>